<mxfile host="app.diagrams.net" modified="2024-01-14T09:29:28.093Z" agent="Mozilla/5.0 (Macintosh; Intel Mac OS X 10_15_7) AppleWebKit/537.36 (KHTML, like Gecko) Chrome/120.0.0.0 Safari/537.36" version="22.1.18" etag="Hy2Ez4Ssxs-Ju6kz2JA4" type="github">
  <diagram name="Page-1" id="EItM4-QG4xRZRCBdoXYI">
    <mxGraphModel>
      <root>
        <mxCell id="0" />
        <mxCell id="1" parent="0" />
      </root>
    </mxGraphModel>
  </diagram>
</mxfile>
